<svg width="24" height="22" viewBox="0 0 24 22" fill="none" xmlns="http://www.w3.org/2000/svg">
<path fill-rule="evenodd" clip-rule="evenodd" d="M3.48859 5.00387C2.76293 6.24787 2.5241 7.97403 2.96996 9.7575C3.13041 10.3992 3.59685 11.2243 4.33609 12.174C5.06098 13.1052 5.98622 14.0787 6.96618 15.0127C8.90927 16.8648 11.0004 18.4985 11.9998 19.254C12.9992 18.4985 15.0903 16.8648 17.0334 15.0127C18.0134 14.0787 18.9386 13.1052 19.6635 12.174C20.4028 11.2243 20.8692 10.3992 21.0297 9.7575C21.4755 7.97403 21.2367 6.24787 20.511 5.00387C19.8027 3.78965 18.62 3 16.9998 3C15.5902 3 14.5967 4.04228 13.8942 5.44721C13.5567 6.12228 13.3273 6.80745 13.1821 7.33015C13.11 7.58959 13.06 7.80435 13.0284 7.95172C12.9165 8.47392 12.3141 8.5 11.9998 8.5C11.6855 8.5 11.0821 8.46905 10.9712 7.95172C10.9396 7.80436 10.8896 7.58959 10.8175 7.33015C10.6723 6.80745 10.4429 6.12229 10.1054 5.44722C9.4029 4.04228 8.40938 3 6.9998 3C5.37961 3 4.19688 3.78965 3.48859 5.00387ZM11.9998 4.77011C12.0339 4.69784 12.0691 4.62535 12.1054 4.55279C12.9029 2.95772 15.4094 0 17.9998 0C20.3796 0 21.1969 2.21035 22.2386 3.99613C23.2629 5.75212 23.5241 8.02597 22.9699 10.2425C22.7074 11.2927 22.0352 12.3832 21.2417 13.4025C20.4339 14.4402 19.4325 15.4891 18.4133 16.4605C16.374 18.4042 14.1955 20.1022 13.1808 20.8683C12.4801 21.3974 11.5195 21.3974 10.8188 20.8683C9.80415 20.1022 7.62565 18.4042 5.5863 16.4605C4.56715 15.4891 3.56568 14.4402 2.75788 13.4025C1.96443 12.3832 1.29222 11.2927 1.02968 10.2425C0.47553 8.02597 0.7367 5.75213 1.76103 3.99613C2.80273 2.21035 4.11995 0 6.49976 0C9.09016 0 11.0967 2.95772 11.8942 4.55278C11.9305 4.62535 11.9657 4.69784 11.9998 4.77011Z" fill="#0F0F0F"/>
</svg>
